<svg width="600" height="500" viewBox="0 0 600 500" xmlns="http://www.w3.org/2000/svg">
  <!-- Sky Background -->
  <defs>
    <linearGradient id="skyGradient" x1="0%" y1="0%" x2="0%" y2="100%">
      <stop offset="0%" stop-color="#87CEEB" />
      <stop offset="100%" stop-color="#e6f7ff" />
    </linearGradient>
  </defs>
  <rect width="600" height="500" fill="url(#skyGradient)"/>
  
  <!-- Sun -->
  <circle cx="500" cy="80" r="50" fill="#FFD700"/>
  <circle cx="500" cy="80" r="60" fill="none" stroke="#FFD700" stroke-width="3" stroke-dasharray="5,5"/>
  
  <!-- Clouds -->
  <circle cx="150" cy="100" r="25" fill="white" opacity="0.9"/>
  <circle cx="180" cy="90" r="30" fill="white" opacity="0.9"/>
  <circle cx="210" cy="100" r="25" fill="white" opacity="0.9"/>
  <circle cx="400" cy="70" r="20" fill="white" opacity="0.8"/>
  <circle cx="430" cy="60" r="25" fill="white" opacity="0.8"/>
  <circle cx="460" cy="70" r="20" fill="white" opacity="0.8"/>
  
  <!-- Mountains Background -->
  <polygon points="0,500 0,200 100,280 200,180 300,280 400,200 500,300 600,180 600,500" fill="#4CAF50"/>
  <polygon points="0,500 0,250 150,320 250,230 350,330 450,250 550,350 600,250 600,500" fill="#388E3C"/>
  <polygon points="0,500 0,300 100,350 200,320 300,370 400,310 500,380 600,300 600,500" fill="#2E7D32"/>
  
  <!-- Lake -->
  <ellipse cx="300" cy="420" rx="200" ry="30" fill="#2196F3" opacity="0.8"/>
  
  <!-- Camp Buildings -->
  <rect x="150" y="300" width="80" height="60" fill="#A1887F"/>
  <polygon points="150,300 190,260 230,300" fill="#8D6E63"/>
  <rect x="170" y="330" width="20" height="30" fill="#5D4037"/>
  <rect x="160" y="310" width="10" height="10" fill="#90CAF9"/>
  <rect x="210" y="310" width="10" height="10" fill="#90CAF9"/>
  
  <rect x="350" y="320" width="100" height="50" fill="#A1887F"/>
  <polygon points="350,320 400,280 450,320" fill="#8D6E63"/>
  <rect x="375" y="340" width="25" height="30" fill="#5D4037"/>
  <rect x="360" y="330" width="12" height="12" fill="#90CAF9"/>
  <rect x="425" y="330" width="12" height="12" fill="#90CAF9"/>
  
  <!-- Tents -->
  <polygon points="100,370 80,330 120,330" fill="#FF9800"/>
  <polygon points="100,370 120,330 140,370" fill="#F57C00"/>
  <line x1="100" y1="330" x2="100" y2="370" stroke="#333" stroke-width="2"/>
  
  <polygon points="480,380 460,340 500,340" fill="#FF9800"/>
  <polygon points="480,380 500,340 520,380" fill="#F57C00"/>
  <line x1="480" y1="340" x2="480" y2="380" stroke="#333" stroke-width="2"/>
  
  <polygon points="530,370 510,330 550,330" fill="#FF9800"/>
  <polygon points="530,370 550,330 570,370" fill="#F57C00"/>
  <line x1="530" y1="330" x2="530" y2="370" stroke="#333" stroke-width="2"/>
  
  <!-- Trees -->
  <rect x="50" y="350" width="10" height="30" fill="#795548"/>
  <polygon points="55,300 35,350 75,350" fill="#2E7D32"/>
  <polygon points="55,280 40,320 70,320" fill="#388E3C"/>
  
  <rect x="250" y="340" width="10" height="30" fill="#795548"/>
  <polygon points="255,290 235,340 275,340" fill="#2E7D32"/>
  <polygon points="255,270 240,310 270,310" fill="#388E3C"/>
  
  <rect x="320" y="350" width="10" height="30" fill="#795548"/>
  <polygon points="325,300 305,350 345,350" fill="#2E7D32"/>
  <polygon points="325,280 310,320 340,320" fill="#388E3C"/>
  
  <!-- Children Playing -->
  <circle cx="200" cy="400" r="10" fill="#FFC107"/> <!-- head -->
  <line x1="200" y1="410" x2="200" y2="430" stroke="#333" stroke-width="2"/> <!-- body -->
  <line x1="200" y1="415" x2="185" y2="425" stroke="#333" stroke-width="2"/> <!-- left arm -->
  <line x1="200" y1="415" x2="215" y2="425" stroke="#333" stroke-width="2"/> <!-- right arm -->
  <line x1="200" y1="430" x2="190" y2="445" stroke="#333" stroke-width="2"/> <!-- left leg -->
  <line x1="200" y1="430" x2="210" y2="445" stroke="#333" stroke-width="2"/> <!-- right leg -->
  
  <circle cx="240" cy="410" r="10" fill="#FFC107"/> <!-- head -->
  <line x1="240" y1="420" x2="240" y2="440" stroke="#333" stroke-width="2"/> <!-- body -->
  <line x1="240" y1="425" x2="225" y2="435" stroke="#333" stroke-width="2"/> <!-- left arm -->
  <line x1="240" y1="425" x2="255" y2="435" stroke="#333" stroke-width="2"/> <!-- right arm -->
  <line x1="240" y1="440" x2="230" y2="455" stroke="#333" stroke-width="2"/> <!-- left leg -->
  <line x1="240" y1="440" x2="250" y2="455" stroke="#333" stroke-width="2"/> <!-- right leg -->
  
  <circle cx="400" cy="400" r="10" fill="#FFC107"/> <!-- head -->
  <line x1="400" y1="410" x2="400" y2="430" stroke="#333" stroke-width="2"/> <!-- body -->
  <line x1="400" y1="415" x2="385" y2="425" stroke="#333" stroke-width="2"/> <!-- left arm -->
  <line x1="400" y1="415" x2="415" y2="410" stroke="#333" stroke-width="2"/> <!-- right arm raised -->
  <line x1="400" y1="430" x2="390" y2="445" stroke="#333" stroke-width="2"/> <!-- left leg -->
  <line x1="400" y1="430" x2="410" y2="445" stroke="#333" stroke-width="2"/> <!-- right leg -->
  
  <!-- Ball -->
  <circle cx="300" cy="410" r="12" fill="#F44336"/>
  <line x1="300" y1="398" x2="300" y2="422" stroke="#333" stroke-width="1"/>
  <line x1="288" y1="410" x2="312" y2="410" stroke="#333" stroke-width="1"/>
  
  <!-- Campfire -->
  <circle cx="150" cy="440" r="10" fill="#795548"/>
  <polygon points="145,430 150,420 155,430 160,415 162,430 155,425 148,435" fill="#FF5722"/>
  <polygon points="140,435 150,425 160,435 155,420 165,430 150,415 145,425" fill="#FF9800"/>
</svg>