<?xml version="1.0" encoding="UTF-8"?>
<svg width="394" height="80" viewBox="0 0 394 80" fill="none" xmlns="http://www.w3.org/2000/svg">
<path d="M261.919 0.0330722H330.547V12.7H303.323V79.339H289.71V12.7H261.919V0.0330722Z" fill="black"/>
<path d="M149.052 0.0330722V12.7H94.0421V33.0772H138.281V45.7441H94.0421V66.6721H149.052V79.339H80.43V12.7H80.4243V0.0330722H149.052Z" fill="black"/>
<path d="M183.32 0.0661486H165.506L229.312 79.3721H247.178L215.271 39.7464L247.127 0.126654H229.312L206.352 28.6704L183.32 0.0661486Z" fill="black"/>
<path d="M201.6 56.7148L192.679 45.2282L165.455 79.4051H183.32L201.6 56.7148Z" fill="black"/>
<path fill-rule="evenodd" clip-rule="evenodd" d="M80.907 79.339L17.0151 0H0V79.3059H13.6121V16.9516L63.8067 79.339H80.907Z" fill="black"/>
<path d="M333.607 78.8546C332.61 78.8546 331.762 78.5093 331.052 77.8186C330.342 77.1279 329.991 76.2917 330 75.3011C329.991 74.3377 330.342 73.5106 331.052 72.8199C331.762 72.1292 332.61 71.7838 333.607 71.7838C334.566 71.7838 335.405 72.1292 336.115 72.8199C336.835 73.5106 337.194 74.3377 337.204 75.3011C337.194 75.9554 337.028 76.5552 336.696 77.0914C336.355 77.6368 335.922 78.064 335.377 78.373C334.842 78.6911 334.252 78.8546 333.607 78.8546Z" fill="black"/>
<path d="M356.84 45.4453H362.872V68.6846C362.863 70.8204 362.401 72.6472 361.498 74.1832C360.585 75.7191 359.321 76.8914 357.698 77.7185C356.084 78.5364 354.193 78.9546 352.044 78.9546C350.079 78.9546 348.318 78.6001 346.75 77.9094C345.182 77.2187 343.937 76.1553 343.024 74.7274C342.101 73.2995 341.649 71.5264 341.649 69.4269H347.691C347.7 70.2812 347.903 71.0173 348.29 71.6352C348.677 72.2532 349.212 72.7257 349.895 73.0438C350.586 73.3619 351.38 73.5163 352.274 73.5163C353.243 73.5163 354.073 73.3346 354.746 72.9712C355.419 72.6077 355.942 72.0624 356.319 71.3444C356.686 70.6265 356.869 69.7267 356.869 68.6572V45.4453H356.84Z" fill="black"/>
<path d="M387.691 54.5338C387.544 53.1241 386.898 52.0243 385.773 51.2393C384.638 50.4543 383.172 50.0618 381.373 50.0618C380.11 50.0618 379.022 50.2435 378.118 50.6161C377.214 50.9886 376.513 51.5066 376.015 52.1701C375.517 52.8336 375.272 53.5971 375.282 54.4459C375.272 55.1368 375.419 55.7457 375.712 56.2728C376.015 56.7999 376.429 57.2551 376.956 57.6003C377.483 57.9456 378.099 58.2272 378.792 58.4452C379.485 58.6541 380.213 58.8357 380.944 58.9901L384.14 59.6353C385.401 59.9079 386.598 60.2897 387.729 60.7895C388.861 61.2893 389.855 61.9164 390.721 62.6707C391.577 63.425 392.273 64.3248 392.790 65.3611C393.308 66.3973 393.567 67.5972 393.576 68.9433C393.567 71.0337 393.056 72.8331 392.045 74.3233C391.024 75.8135 389.575 76.9676 387.691 77.7744C385.818 78.5903 383.582 79.0037 380.991 79.0037C378.118 79.0037 375.603 78.5266 373.729 77.5814C371.855 76.6271 370.44 75.3083 369.493 73.6165C368.545 71.9246 368.08 69.9432 368.061 67.6722H374.047C374.103 68.8266 374.41 69.7993 374.982 70.5752C375.554 71.3511 376.346 71.9336 377.344 72.3334C378.352 72.7239 379.504 72.9329 380.787 72.9329C382.106 72.9329 383.248 72.7422 384.224 72.3516C385.21 71.9701 385.977 71.4248 386.523 70.7249C387.079 70.025 387.357 69.1978 387.367 68.2617C387.357 67.4038 387.097 66.6916 386.57 66.1281C386.033 65.5646 385.309 65.1102 384.363 64.7649C383.416 64.4197 382.341 64.1107 381.118 63.8472L377.354 63.0805C374.41 62.4534 372.077 61.4353 370.367 60.0437C368.657 58.6522 367.798 56.7182 367.798 54.2414C367.798 52.1055 368.342 50.2526 369.446 48.6918C370.541 47.1219 372.058 45.9037 373.997 45.0551C375.937 44.1974 378.099 43.7685 380.472 43.7685C382.882 43.7685 385.016 44.1974 386.879 45.0551C388.751 45.9128 390.24 47.1128 391.334 48.6463C392.429 50.1706 392.995 51.9699 393.032 54.0603H387.691V54.5338Z" fill="black"/>
</svg>